<svg width="22" height="21" viewBox="0 0 22 21" fill="none" xmlns="http://www.w3.org/2000/svg">
<path fill-rule="evenodd" clip-rule="evenodd" d="M21.1236 0.277306C21.2308 0.384608 21.303 0.521903 21.3306 0.671068C21.3582 0.820232 21.3399 0.974255 21.2781 1.11281L12.7926 20.2048C12.7333 20.3383 12.6363 20.4516 12.5135 20.5308C12.3907 20.61 12.2475 20.6515 12.1014 20.6504C11.9553 20.6493 11.8127 20.6056 11.6912 20.5245C11.5696 20.4435 11.4743 20.3287 11.4171 20.1943L8.3556 13.0453L1.2051 9.98231C1.07118 9.92471 0.956959 9.82933 0.876393 9.70784C0.795826 9.58635 0.752411 9.44402 0.751456 9.29825C0.750501 9.15248 0.792049 9.00959 0.871016 8.88705C0.949984 8.76452 1.06295 8.66765 1.1961 8.60831L20.2881 0.122806C20.4265 0.0613779 20.5802 0.0432605 20.729 0.0708363C20.8779 0.0984121 21.0149 0.17039 21.1221 0.277306H21.1236ZM3.3756 9.28031L9.2211 11.7853C9.39787 11.8615 9.53858 12.0027 9.6141 12.1798L12.1191 18.0253L19.1151 2.28431L3.3756 9.28031Z" fill="#FBFBFB"/>
</svg>
