<svg width="25" height="24" viewBox="0 0 25 24" fill="none" xmlns="http://www.w3.org/2000/svg">
<path fill-rule="evenodd" clip-rule="evenodd" d="M4.18437 17.5844C4.34656 17.7472 4.47083 17.9438 4.54835 18.1601C4.62586 18.3764 4.6547 18.6072 4.63281 18.8359C4.523 19.8947 4.31481 20.9408 4.01094 21.9609C6.19062 21.4562 7.52188 20.8719 8.12656 20.5656C8.46954 20.3919 8.86451 20.3507 9.23594 20.45C10.3007 20.7339 11.3981 20.8767 12.5 20.875C18.7437 20.875 23.4375 16.4891 23.4375 11.5C23.4375 6.5125 18.7437 2.125 12.5 2.125C6.25625 2.125 1.5625 6.5125 1.5625 11.5C1.5625 13.7937 2.52656 15.9219 4.18437 17.5844ZM3.41406 23.6859C3.04386 23.7593 2.67245 23.8265 2.3 23.8875C1.9875 23.9375 1.75 23.6125 1.87344 23.3219C2.01217 22.9947 2.13934 22.6627 2.25469 22.3266L2.25937 22.3109C2.64687 21.1859 2.9625 19.8922 3.07812 18.6875C1.16094 16.7656 0 14.25 0 11.5C0 5.45937 5.59687 0.5625 12.5 0.5625C19.4031 0.5625 25 5.45937 25 11.5C25 17.5406 19.4031 22.4375 12.5 22.4375C11.262 22.4392 10.029 22.2784 8.83281 21.9594C8.02031 22.3703 6.27187 23.1187 3.41406 23.6859Z" fill="#FBFBFB"/>
</svg>
