<svg width="19" height="19" viewBox="0 0 19 19" fill="none" xmlns="http://www.w3.org/2000/svg">
<path fill-rule="evenodd" clip-rule="evenodd" d="M12.625 4.8125C12.625 5.6413 12.2958 6.43616 11.7097 7.02221C11.1237 7.60826 10.3288 7.9375 9.5 7.9375C8.6712 7.9375 7.87634 7.60826 7.29029 7.02221C6.70424 6.43616 6.375 5.6413 6.375 4.8125C6.375 3.9837 6.70424 3.18884 7.29029 2.60279C7.87634 2.01674 8.6712 1.6875 9.5 1.6875C10.3288 1.6875 11.1237 2.01674 11.7097 2.60279C12.2958 3.18884 12.625 3.9837 12.625 4.8125ZM9.5 9.5C10.7432 9.5 11.9355 9.00614 12.8146 8.12706C13.6936 7.24799 14.1875 6.0557 14.1875 4.8125C14.1875 3.5693 13.6936 2.37701 12.8146 1.49794C11.9355 0.61886 10.7432 0.125 9.5 0.125C8.2568 0.125 7.06451 0.61886 6.18544 1.49794C5.30636 2.37701 4.8125 3.5693 4.8125 4.8125C4.8125 6.0557 5.30636 7.24799 6.18544 8.12706C7.06451 9.00614 8.2568 9.5 9.5 9.5ZM18.875 17.3125C18.875 18.875 17.3125 18.875 17.3125 18.875H1.6875C1.6875 18.875 0.125 18.875 0.125 17.3125C0.125 15.75 1.6875 11.0625 9.5 11.0625C17.3125 11.0625 18.875 15.75 18.875 17.3125ZM17.3125 17.3062C17.3109 16.9219 17.0719 15.7656 16.0125 14.7062C14.9938 13.6875 13.0766 12.625 9.5 12.625C5.92188 12.625 4.00625 13.6875 2.9875 14.7062C1.92813 15.7656 1.69062 16.9219 1.6875 17.3062H17.3125Z" fill="#FBFBFB"/>
</svg>
