<?xml version="1.0" encoding="utf-8"?><svg viewBox="0 0 100 100" xmlns="http://www.w3.org/2000/svg" xmlns:xlink="http://www.w3.org/1999/xlink"><style>:root>svg{display:none}:root>svg:target{display:block}</style><svg fill="none" viewBox="5 8 15 25" id="logo" xmlns="http://www.w3.org/2000/svg"><path d="M18.294 32.984h-.583a.867.867 0 0 1-.607-.246.833.833 0 0 1-.251-.595v-7.02H8.104v7.02c0 .223-.09.437-.251.595a.867.867 0 0 1-.607.246h-.572a.867.867 0 0 1-.607-.246.832.832 0 0 1-.25-.595V15.978l2.287 1.495v5.817h8.748v-5.817l2.3-1.495v16.165c0 .223-.09.437-.25.595a.867.867 0 0 1-.608.246Z" fill="#fff"/><path d="m5.095 12.194 7.39 4.193 7.388-4.193L12.484 8l-7.389 4.194Z" fill="#fff"/></svg><svg fill="none" viewBox="0 0 25 23" id="chat" xmlns="http://www.w3.org/2000/svg"><path fill-rule="evenodd" clip-rule="evenodd" d="M4.184 17.584a1.563 1.563 0 0 1 .449 1.252 17.139 17.139 0 0 1-.622 3.125c2.18-.505 3.51-1.09 4.116-1.395a1.562 1.562 0 0 1 1.109-.116c1.065.284 2.162.427 3.264.425 6.244 0 10.938-4.386 10.938-9.375 0-4.987-4.694-9.375-10.938-9.375-6.244 0-10.938 4.388-10.938 9.375 0 2.294.965 4.422 2.622 6.084Zm-.77 6.102c-.37.073-.742.14-1.114.201-.312.05-.55-.274-.427-.565.14-.327.266-.66.382-.995l.004-.016c.388-1.125.704-2.419.82-3.623C1.16 16.765 0 14.25 0 11.5 0 5.46 5.597.562 12.5.562S25 5.46 25 11.5c0 6.04-5.597 10.938-12.5 10.938a14.157 14.157 0 0 1-3.667-.479c-.813.411-2.561 1.16-5.419 1.727Z" fill="#FBFBFB"/></svg><svg fill="none" viewBox="0 0 25 19" id="people" xmlns="http://www.w3.org/2000/svg"><path fill-rule="evenodd" clip-rule="evenodd" d="M23.438 18.875s1.562 0 1.562-1.563c0-1.562-1.563-6.25-7.813-6.25s-7.812 4.688-7.812 6.25c0 1.563 1.563 1.563 1.563 1.563h12.5Zm-12.466-1.563h12.431a.55.55 0 0 0 .022-.003l.012-.003c-.003-.412-.26-1.61-1.187-2.687-.863-1.011-2.378-1.994-5.063-1.994-2.682 0-4.198.984-5.062 1.994-.927 1.078-1.186 2.276-1.188 2.687.012.002.023.005.035.006Zm6.216-9.375a3.125 3.125 0 1 0 0-6.25 3.125 3.125 0 0 0 0 6.25Zm4.687-3.125a4.687 4.687 0 1 1-9.374 0 4.687 4.687 0 0 1 9.374 0ZM10.838 11.5a9.185 9.185 0 0 0-1.922-.386 11.477 11.477 0 0 0-1.104-.052C1.563 11.063 0 15.75 0 17.313c0 1.043.52 1.563 1.563 1.563H8.15a3.497 3.497 0 0 1-.338-1.563c0-1.578.59-3.19 1.704-4.537.38-.46.822-.89 1.322-1.275Zm-3.15 1.125c-2.607.031-4.086 1-4.938 1.994-.933 1.084-1.188 2.286-1.188 2.694H6.25c0-1.633.505-3.26 1.438-4.688ZM2.343 5.594a4.687 4.687 0 1 1 9.375 0 4.687 4.687 0 0 1-9.375 0ZM7.03 2.469a3.125 3.125 0 1 0 0 6.25 3.125 3.125 0 0 0 0-6.25Z" fill="#FBFBFB"/></svg><svg fill="none" viewBox="0 0 19 19" id="person" xmlns="http://www.w3.org/2000/svg"><path fill-rule="evenodd" clip-rule="evenodd" d="M12.625 4.813a3.125 3.125 0 1 1-6.25 0 3.125 3.125 0 0 1 6.25 0ZM9.5 9.5a4.688 4.688 0 1 0 0-9.375 4.688 4.688 0 0 0 0 9.375Zm9.375 7.813c0 1.562-1.563 1.562-1.563 1.562H1.688s-1.562 0-1.562-1.563c0-1.562 1.563-6.25 9.375-6.25 7.813 0 9.375 4.688 9.375 6.25Zm-1.563-.007c-.001-.384-.24-1.54-1.3-2.6-1.018-1.018-2.935-2.081-6.512-2.081-3.578 0-5.494 1.063-6.513 2.081-1.059 1.06-1.296 2.216-1.3 2.6h15.626Z" fill="#FBFBFB"/></svg></svg>
